# xmcd
#
# Track frame offsets:
#	150
#	28945
#	64894
#	87781
#	120319
#	148319
#	172911
#	196863
#	217547
#	239406
#	257420
#	280989
#	294997
#	316040
#	346387
#
# Disc length: 4793
#
# Revision: 1
# Processed by: cddbd v1.5.1PL0 Copyright (c) Steve Scherf et al.
# Submitted via: ExactAudioCopy v0.90b4
# Normalized: r0:DSETVAR1
#
DISCID=d212b70f
DTITLE=Various Artist - Man Of The World: Reflections on Peter Green
DYEAR=1978
DGENRE=Blues
TTITLE0=Billy Sheehan - Oh Well
TTITLE1=Rory Gallagher - Showbiz Blues
TTITLE2=Arthur Brown - The Green Manalishi
TTITLE3=Snowy White - Looking For Somebody
TTITLE4=Dave Peverett - Love That Burns
TTITLE5=Vince Converse - Rattlesnake Shake
TTITLE6=Harvey Mandel - Ramblin' Pony
TTITLE7=Dave Peverett - If You Be My Baby
TTITLE8=Southside Johnny - Baby When The Sun Goes Down
TTITLE9=Black Magic Woman - Larry McCray
TTITLE10=Luther Grosvenor - Crying Won't Bring You Back
TTITLE11=Savoy Brown - Stop Messin' 'Round
TTITLE12=Paul Jones - Albatross
TTITLE13=Rory Gallagher - Leaving Town Blues
TTITLE14=Ian Anderson - Man of the World
EXTD=
EXTT0=
EXTT1=
EXTT2=
EXTT3=
EXTT4=
EXTT5=
EXTT6=
EXTT7=
EXTT8=
EXTT9=
EXTT10=
EXTT11=
EXTT12=
EXTT13=
EXTT14=
PLAYORDER=
